<svg xmlns="http://www.w3.org/2000/svg" xmlns:xlink="http://www.w3.org/1999/xlink" version="1.1" id="Layer_1" x="0px" y="0px" viewBox="0 0 200 182.8" style="enable-background:new 0 0 200 182.8;" xml:space="preserve">
<style type="text/css">
	.st0{fill:#00467F;}
</style>
<path class="st0" d="M0.7,163.1c0-3.8-0.2-7.6-0.4-11.3c0.7,0.1,1.4,0.2,2.1,0.2s1.4-0.1,2.1-0.2c-0.2,3.8-0.3,7.6-0.3,11.3v7.5  c0,3.8,0.2,7.6,0.3,11.3c-0.7-0.1-1.4-0.2-2.1-0.2s-1.4,0.1-2.1,0.2c0.2-3.8,0.4-7.6,0.4-11.3V163.1z"/>
<path class="st0" d="M37.9,182.5c-6.6-7.8-14.6-16.2-22.1-24.2c0,1.6-0.1,4.2-0.1,8.9c0,3.8,0.2,13,0.4,14.7c-0.5-0.1-1-0.2-1.5-0.2  c-0.5,0-1.1,0.1-1.6,0.2c0.4-2.1,0.9-13.3,0.9-19c0-5.5,0-9.8-0.1-11.7h0.7c7.1,7.7,16.8,18.3,22.1,23.7c0-7.8,0-16.4-0.4-23.1  c0.5,0.1,1,0.2,1.5,0.2c0.5,0,0.9-0.1,1.4-0.2c-0.3,2.6-0.7,11.2-0.7,14.6c0,4.5,0.1,14.1,0.1,16.1H37.9z"/>
<path class="st0" d="M53.9,163.1c0-3,0-6-0.1-9.1c-3,0-6.9,0.2-9.4,0.5c0.1-0.4,0.2-0.9,0.2-1.4c0-0.4-0.1-0.9-0.2-1.4  c3.8,0.1,7.5,0.2,11.3,0.2c3.8,0,7.5-0.1,11.3-0.2c-0.1,0.5-0.2,0.9-0.2,1.4c0,0.4,0.1,0.9,0.2,1.4c-2.4-0.3-6.3-0.5-9.4-0.5  c-0.1,3-0.1,6-0.1,9.1v7.5c0,3.8,0.2,7.6,0.4,11.3c-0.7-0.1-1.4-0.2-2.1-0.2c-0.7,0-1.4,0.1-2.1,0.2c0.2-3.8,0.4-7.6,0.4-11.3V163.1  z"/>
<path class="st0" d="M72.6,163c0-3.8-0.2-7.6-0.4-11.3c2.6,0.1,5.2,0.2,7.8,0.2c2.6,0,5.2-0.1,7.8-0.2c-0.1,0.4-0.1,0.9-0.1,1.3  c0,0.4,0,0.9,0.1,1.3c-3.7-0.3-5.8-0.6-11.5-0.6c0,1.9-0.2,3.4-0.2,5.6c0,2.3,0,4.7,0,5.8c5.2,0,8-0.2,10.6-0.4  c-0.1,0.4-0.1,0.9-0.1,1.4c0,0.4,0,0.9,0.1,1.3c-3-0.3-8.5-0.4-10.6-0.4c0,1.1,0,2.1,0,6.3c0,3.3,0,5.5,0.1,6.6  c3.9,0,9.1,0,11.8-0.6c-0.1,0.4-0.1,1-0.1,1.4c0,0.4,0,0.9,0.1,1.3c-2.6-0.1-5.2-0.2-7.9-0.2c-2.7,0-5.3,0.1-8,0.2  c0.2-3.8,0.4-7.6,0.4-11.4V163z"/>
<path class="st0" d="M98.6,165.6c0.8,0.2,1.8,0.2,2.9,0.2c3.6,0,8.4-1.5,8.4-6.7c0-4.6-3.8-5.7-6.8-5.7c-2,0-3.3,0.1-4.2,0.2  c-0.1,3.2-0.3,6.3-0.3,9.5V165.6z M95,163.1c0-3.8-0.2-7.6-0.4-11.3c1.7,0.1,3.3,0.2,5,0.2c1.7,0,3.3-0.2,5-0.2  c4.9,0,9.1,1.7,9.1,6.9c0,5.6-5.6,7.9-9,8.4c2.1,2.7,9.4,12.1,12,14.9c-0.9-0.1-1.7-0.2-2.6-0.2c-0.8,0-1.7,0.1-2.5,0.2  c-1.7-2.7-7.6-10.7-11.3-14.5h-1.7v3.2c0,3.8,0.2,7.6,0.4,11.3c-0.7-0.1-1.4-0.2-2.1-0.2c-0.7,0-1.4,0.1-2.1,0.2  c0.2-3.8,0.4-7.6,0.4-11.3V163.1z"/>
<path class="st0" d="M125.8,166.3c0.9,0.2,2.1,0.4,3.1,0.4c3.6,0,8.2-1.4,8.2-7.3c0-5-2.8-6-7.3-6h-3.9V166.3z M122.2,163.1  c0-3.8-0.2-7.6-0.4-11.3c1.4,0.1,2.8,0.2,4.2,0.2c1.4,0,4.2-0.2,5.4-0.2c2.6,0,9.6,0.1,9.6,7.4c0,7.7-7.6,9.2-11.8,9.2  c-1.3,0-2.4,0-3.5-0.1v2.4c0,3.8,0.2,7.6,0.4,11.3c-0.7-0.1-1.4-0.2-2.1-0.2s-1.4,0.1-2.1,0.2c0.2-3.8,0.4-7.6,0.4-11.3V163.1z"/>
<path class="st0" d="M160.9,152.8c-6.8,0-12.1,4.3-12.1,14c0,9.7,5.2,14,12.1,14c6.9,0,12.1-4.3,12.1-14  C173,157.1,167.7,152.8,160.9,152.8 M160.9,151.2c9.7,0,16.4,5.7,16.4,15.7c0,9.9-6.7,15.7-16.4,15.7c-9.6,0-16.4-5.7-16.4-15.7  C144.5,156.9,151.3,151.2,160.9,151.2"/>
<path class="st0" d="M183.9,163.1c0-3.8-0.2-7.6-0.4-11.3c0.7,0.1,1.4,0.2,2.1,0.2s1.4-0.1,2.1-0.2c-0.2,3.8-0.4,7.6-0.4,11.3  c0,7.3,0.1,12.5,0.1,16.8c4.1,0,7.7,0,12.1-0.6c-0.1,0.4-0.2,0.9-0.2,1.3c0,0.4,0.1,0.9,0.2,1.3c-2.7-0.1-5.4-0.2-8-0.2  c-2.7,0-5.4,0.1-8.1,0.2c0.2-3.8,0.4-7.6,0.4-11.3V163.1z"/>
</svg>